<svg width="222" height="24" viewBox="0 0 222 24" fill="none" xmlns="http://www.w3.org/2000/svg">
<path d="M20.576 0.448002V1.088C20.1707 1.17333 19.7334 1.41867 19.264 1.824C18.816 2.22933 18.4107 2.912 18.048 3.872L10.528 23.264C10.4854 23.264 10.4427 23.264 10.4 23.264C10.3574 23.264 10.3147 23.264 10.272 23.264C10.2294 23.264 10.1867 23.264 10.144 23.264C10.1014 23.264 10.0587 23.264 10.016 23.264L2.20802 3.136C1.88802 2.32533 1.52535 1.792 1.12002 1.536C0.714683 1.25867 0.34135 1.10933 1.65999e-05 1.088V0.448002C0.426683 0.469335 0.94935 0.490668 1.56802 0.512001C2.20802 0.533334 2.82668 0.544001 3.42402 0.544001C4.25602 0.544001 5.03468 0.533334 5.76002 0.512001C6.48535 0.490668 7.07202 0.469335 7.52002 0.448002V1.088C6.79468 1.10933 6.24002 1.19467 5.85602 1.344C5.49335 1.49333 5.29068 1.76 5.24802 2.144C5.22668 2.50667 5.35468 3.05067 5.63202 3.776L11.584 19.552L11.072 20.096L16.64 5.632C17.088 4.48 17.3014 3.584 17.28 2.944C17.2587 2.28267 17.0134 1.81333 16.544 1.536C16.0747 1.25867 15.392 1.10933 14.496 1.088V0.448002C15.1147 0.469335 15.744 0.490668 16.384 0.512001C17.024 0.533334 17.6214 0.544001 18.176 0.544001C18.7307 0.544001 19.1894 0.533334 19.552 0.512001C19.9147 0.490668 20.256 0.469335 20.576 0.448002ZM61.8205 0.448002V1.088C61.4152 1.17333 61.0099 1.44 60.6045 1.888C60.1992 2.31467 59.7512 2.99733 59.2605 3.936L52.7965 16.736H52.2525L44.7645 2.912C44.3378 2.12267 43.9752 1.632 43.6765 1.44C43.3992 1.22667 43.1432 1.12 42.9085 1.12V0.448002C43.3352 0.469335 43.7725 0.490668 44.2205 0.512001C44.6899 0.533334 45.1912 0.544001 45.7245 0.544001C46.4285 0.544001 47.1752 0.544001 47.9645 0.544001C48.7752 0.522668 49.5219 0.490668 50.2045 0.448002V1.12C49.6712 1.12 49.2019 1.184 48.7965 1.312C48.3912 1.44 48.1245 1.67467 47.9965 2.016C47.8685 2.35733 47.9645 2.83733 48.2845 3.456L53.6925 13.824L53.4365 14.016L57.6925 5.536C58.2899 4.36267 58.5779 3.456 58.5565 2.816C58.5565 2.176 58.3112 1.73867 57.8205 1.504C57.3299 1.248 56.6365 1.10933 55.7405 1.088V0.448002C56.3592 0.469335 56.9885 0.490668 57.6285 0.512001C58.2685 0.533334 58.8659 0.544001 59.4205 0.544001C59.9752 0.544001 60.4339 0.533334 60.7965 0.512001C61.1592 0.490668 61.5005 0.469335 61.8205 0.448002ZM54.2365 13.376V19.712C54.2365 20.48 54.3005 21.056 54.4285 21.44C54.5565 21.824 54.8019 22.08 55.1645 22.208C55.5485 22.336 56.1032 22.4213 56.8285 22.464V23.104C56.3379 23.0613 55.7192 23.04 54.9725 23.04C54.2472 23.0187 53.5112 23.008 52.7645 23.008C51.9325 23.008 51.1539 23.0187 50.4285 23.04C49.7032 23.04 49.1165 23.0613 48.6685 23.104V22.464C49.3939 22.4213 49.9379 22.336 50.3005 22.208C50.6845 22.08 50.9405 21.824 51.0685 21.44C51.1965 21.056 51.2605 20.48 51.2605 19.712V13.152L52.9885 15.136L54.2365 13.376ZM70.6843 0.288L78.4923 20.416C78.8123 21.2267 79.1749 21.7707 79.5803 22.048C79.9856 22.304 80.3589 22.4427 80.7003 22.464V23.104C80.2736 23.0613 79.7509 23.04 79.1323 23.04C78.5136 23.0187 77.8949 23.008 77.2763 23.008C76.4443 23.008 75.6656 23.0187 74.9403 23.04C74.2149 23.04 73.6283 23.0613 73.1803 23.104V22.464C74.2683 22.4213 74.9616 22.24 75.2603 21.92C75.5589 21.5787 75.4949 20.864 75.0683 19.776L69.1163 3.872L69.6283 3.456L64.0603 17.92C63.7189 18.7733 63.5163 19.4987 63.4523 20.096C63.3883 20.672 63.4416 21.1307 63.6123 21.472C63.8043 21.8133 64.1136 22.0587 64.5403 22.208C64.9883 22.3573 65.5429 22.4427 66.2043 22.464V23.104C65.6069 23.0613 64.9776 23.04 64.3163 23.04C63.6763 23.0187 63.0789 23.008 62.5243 23.008C61.9909 23.008 61.5323 23.0187 61.1483 23.04C60.7856 23.04 60.4443 23.0613 60.1243 23.104V22.464C60.5509 22.3573 60.9883 22.112 61.4363 21.728C61.8843 21.3227 62.2896 20.64 62.6523 19.68L70.1723 0.288C70.2576 0.288 70.3429 0.288 70.4283 0.288C70.5136 0.288 70.5989 0.288 70.6843 0.288ZM74.5883 13.888V14.528H65.0523L65.3723 13.888H74.5883ZM101.32 0.448002V1.088C100.594 1.10933 100.04 1.216 99.6555 1.408C99.2929 1.6 99.0475 1.90933 98.9195 2.336C98.7915 2.76267 98.7275 3.37067 98.7275 4.16V23.264C98.5995 23.264 98.4715 23.264 98.3435 23.264C98.2369 23.264 98.1195 23.264 97.9915 23.264L84.5515 2.496V19.392C84.5515 20.16 84.6155 20.768 84.7435 21.216C84.8929 21.6427 85.1702 21.952 85.5755 22.144C86.0022 22.3147 86.6315 22.4213 87.4635 22.464V23.104C87.0795 23.0613 86.5782 23.04 85.9595 23.04C85.3409 23.0187 84.7542 23.008 84.1995 23.008C83.6662 23.008 83.1222 23.0187 82.5675 23.04C82.0342 23.04 81.5862 23.0613 81.2235 23.104V22.464C81.9489 22.4213 82.4929 22.3147 82.8555 22.144C83.2395 21.952 83.4955 21.6427 83.6235 21.216C83.7515 20.768 83.8155 20.16 83.8155 19.392V3.84C83.8155 3.05067 83.7515 2.47467 83.6235 2.112C83.4955 1.728 83.2395 1.472 82.8555 1.344C82.4929 1.19467 81.9489 1.10933 81.2235 1.088V0.448002C81.5862 0.469335 82.0342 0.490668 82.5675 0.512001C83.1222 0.533334 83.6662 0.544001 84.1995 0.544001C84.6689 0.544001 85.1169 0.533334 85.5435 0.512001C85.9702 0.490668 86.3542 0.469335 86.6955 0.448002L97.9915 17.856V4.16C97.9915 3.37067 97.9169 2.76267 97.7675 2.336C97.6395 1.90933 97.3622 1.6 96.9355 1.408C96.5302 1.216 95.9115 1.10933 95.0795 1.088V0.448002C95.4635 0.469335 95.9649 0.490668 96.5835 0.512001C97.2235 0.533334 97.8102 0.544001 98.3435 0.544001C98.8982 0.544001 99.4422 0.533334 99.9755 0.512001C100.53 0.490668 100.978 0.469335 101.32 0.448002ZM114.127 0C115.535 0 116.687 0.213334 117.583 0.640001C118.5 1.04533 119.311 1.52533 120.015 2.08C120.441 2.4 120.761 2.44267 120.975 2.208C121.209 1.952 121.369 1.36533 121.455 0.448002H122.191C122.148 1.23734 122.116 2.19733 122.095 3.328C122.073 4.45867 122.063 5.952 122.063 7.808H121.327C121.177 6.89067 121.039 6.16533 120.911 5.632C120.783 5.07733 120.623 4.608 120.431 4.224C120.26 3.84 120.025 3.456 119.727 3.072C119.065 2.19733 118.233 1.568 117.231 1.184C116.228 0.778667 115.172 0.576 114.063 0.576C113.017 0.576 112.068 0.842667 111.215 1.376C110.383 1.888 109.657 2.63467 109.039 3.616C108.441 4.59733 107.972 5.78133 107.631 7.168C107.311 8.55467 107.151 10.112 107.151 11.84C107.151 13.632 107.332 15.2213 107.695 16.608C108.057 17.9733 108.559 19.1253 109.199 20.064C109.86 21.0027 110.628 21.7173 111.503 22.208C112.399 22.6773 113.359 22.912 114.383 22.912C115.343 22.912 116.345 22.72 117.391 22.336C118.436 21.952 119.257 21.3333 119.855 20.48C120.324 19.8613 120.644 19.1893 120.815 18.464C121.007 17.7387 121.177 16.7253 121.327 15.424H122.063C122.063 17.3653 122.073 18.9333 122.095 20.128C122.116 21.3013 122.148 22.2933 122.191 23.104H121.455C121.369 22.1867 121.22 21.6107 121.007 21.376C120.815 21.1413 120.484 21.1733 120.015 21.472C119.225 22.0267 118.383 22.5173 117.487 22.944C116.612 23.3493 115.481 23.552 114.095 23.552C112.068 23.552 110.287 23.0933 108.751 22.176C107.236 21.2587 106.052 19.936 105.199 18.208C104.367 16.48 103.951 14.4 103.951 11.968C103.951 9.57867 104.388 7.488 105.263 5.696C106.137 3.904 107.332 2.50667 108.847 1.504C110.383 0.501334 112.143 0 114.127 0ZM141.598 0.448002C141.512 1.19467 141.448 1.92 141.406 2.624C141.384 3.328 141.374 3.86133 141.374 4.224C141.374 4.608 141.384 4.98133 141.406 5.344C141.427 5.68533 141.448 5.97333 141.47 6.208H140.734C140.606 4.94934 140.424 3.95733 140.19 3.232C139.955 2.48533 139.55 1.96267 138.974 1.664C138.419 1.344 137.576 1.184 136.446 1.184H133.79C133.064 1.184 132.51 1.248 132.126 1.376C131.763 1.48267 131.518 1.728 131.39 2.112C131.262 2.47467 131.198 3.05067 131.198 3.84V19.712C131.198 20.48 131.262 21.056 131.39 21.44C131.518 21.824 131.763 22.08 132.126 22.208C132.51 22.3147 133.064 22.368 133.79 22.368H136.126C137.47 22.368 138.483 22.1867 139.166 21.824C139.87 21.4613 140.371 20.8747 140.67 20.064C140.99 19.232 141.224 18.112 141.374 16.704H142.11C142.046 17.28 142.014 18.048 142.014 19.008C142.014 19.4133 142.024 20 142.046 20.768C142.088 21.5147 142.152 22.2933 142.238 23.104C141.15 23.0613 139.923 23.04 138.558 23.04C137.192 23.0187 135.976 23.008 134.91 23.008C134.44 23.008 133.832 23.008 133.086 23.008C132.36 23.008 131.571 23.0187 130.718 23.04C129.864 23.04 129 23.0507 128.126 23.072C127.251 23.072 126.419 23.0827 125.63 23.104V22.464C126.355 22.4213 126.899 22.336 127.262 22.208C127.646 22.08 127.902 21.824 128.03 21.44C128.158 21.056 128.222 20.48 128.222 19.712V3.84C128.222 3.05067 128.158 2.47467 128.03 2.112C127.902 1.728 127.646 1.472 127.262 1.344C126.899 1.19467 126.355 1.10933 125.63 1.088V0.448002C126.419 0.469335 127.251 0.490668 128.126 0.512001C129 0.512001 129.864 0.522668 130.718 0.544001C131.571 0.544001 132.36 0.544001 133.086 0.544001C133.832 0.544001 134.44 0.544001 134.91 0.544001C135.891 0.544001 137 0.544001 138.238 0.544001C139.496 0.522668 140.616 0.490668 141.598 0.448002ZM136.094 11.392C136.094 11.392 136.094 11.4987 136.094 11.712C136.094 11.9253 136.094 12.032 136.094 12.032H130.238C130.238 12.032 130.238 11.9253 130.238 11.712C130.238 11.4987 130.238 11.392 130.238 11.392H136.094ZM137.022 7.168C136.936 8.384 136.894 9.312 136.894 9.952C136.915 10.592 136.926 11.1787 136.926 11.712C136.926 12.2453 136.936 12.832 136.958 13.472C136.979 14.112 137.032 15.04 137.118 16.256H136.382C136.296 15.5733 136.19 14.912 136.062 14.272C135.955 13.6107 135.699 13.0773 135.294 12.672C134.91 12.2453 134.248 12.032 133.31 12.032V11.392C134.014 11.392 134.547 11.2533 134.91 10.976C135.294 10.6773 135.571 10.304 135.742 9.856C135.912 9.408 136.03 8.94933 136.094 8.48C136.158 7.98933 136.222 7.552 136.286 7.168H137.022ZM145.13 0.448002C145.578 0.469335 146.164 0.490668 146.89 0.512001C147.615 0.533334 148.33 0.544001 149.034 0.544001C150.036 0.544001 150.996 0.533334 151.914 0.512001C152.831 0.490668 153.482 0.480001 153.866 0.480001C156.447 0.480001 158.378 1.06667 159.658 2.24C160.938 3.41334 161.578 4.928 161.578 6.784C161.578 7.552 161.45 8.36267 161.194 9.216C160.938 10.048 160.49 10.8267 159.85 11.552C159.231 12.256 158.378 12.832 157.29 13.28C156.202 13.728 154.826 13.952 153.162 13.952H150.09V13.312H152.842C154.356 13.312 155.508 13.024 156.298 12.448C157.108 11.872 157.652 11.1147 157.93 10.176C158.228 9.23733 158.378 8.224 158.378 7.136C158.378 5.10933 157.972 3.59467 157.162 2.592C156.372 1.58933 155.007 1.088 153.066 1.088C152.084 1.088 151.444 1.26933 151.146 1.632C150.847 1.99467 150.698 2.73067 150.698 3.84V19.712C150.698 20.48 150.772 21.056 150.922 21.44C151.092 21.824 151.412 22.08 151.882 22.208C152.351 22.336 153.034 22.4213 153.93 22.464V23.104C153.375 23.0613 152.671 23.04 151.818 23.04C150.964 23.0187 150.1 23.008 149.226 23.008C148.394 23.008 147.615 23.0187 146.89 23.04C146.164 23.04 145.578 23.0613 145.13 23.104V22.464C145.855 22.4213 146.399 22.336 146.762 22.208C147.146 22.08 147.402 21.824 147.53 21.44C147.658 21.056 147.722 20.48 147.722 19.712V3.84C147.722 3.05067 147.658 2.47467 147.53 2.112C147.402 1.728 147.146 1.472 146.762 1.344C146.399 1.19467 145.855 1.10933 145.13 1.088V0.448002ZM171.528 0.288L179.336 20.416C179.656 21.2267 180.019 21.7707 180.424 22.048C180.829 22.304 181.203 22.4427 181.544 22.464V23.104C181.117 23.0613 180.595 23.04 179.976 23.04C179.357 23.0187 178.739 23.008 178.12 23.008C177.288 23.008 176.509 23.0187 175.784 23.04C175.059 23.04 174.472 23.0613 174.024 23.104V22.464C175.112 22.4213 175.805 22.24 176.104 21.92C176.403 21.5787 176.339 20.864 175.912 19.776L169.96 3.872L170.472 3.456L164.904 17.92C164.563 18.7733 164.36 19.4987 164.296 20.096C164.232 20.672 164.285 21.1307 164.456 21.472C164.648 21.8133 164.957 22.0587 165.384 22.208C165.832 22.3573 166.387 22.4427 167.048 22.464V23.104C166.451 23.0613 165.821 23.04 165.16 23.04C164.52 23.0187 163.923 23.008 163.368 23.008C162.835 23.008 162.376 23.0187 161.992 23.04C161.629 23.04 161.288 23.0613 160.968 23.104V22.464C161.395 22.3573 161.832 22.112 162.28 21.728C162.728 21.3227 163.133 20.64 163.496 19.68L171.016 0.288C171.101 0.288 171.187 0.288 171.272 0.288C171.357 0.288 171.443 0.288 171.528 0.288ZM175.432 13.888V14.528H165.896L166.216 13.888H175.432ZM193.068 0C194.454 0 195.574 0.213334 196.428 0.640001C197.281 1.04533 198.081 1.52533 198.828 2.08C199.105 2.29333 199.318 2.4 199.468 2.4C199.873 2.4 200.14 1.74933 200.268 0.448002H201.004C200.961 1.23734 200.929 2.19733 200.908 3.328C200.886 4.45867 200.876 5.952 200.876 7.808H200.14C199.99 6.912 199.809 6.048 199.596 5.216C199.382 4.384 199.03 3.66933 198.54 3.072C197.921 2.28267 197.11 1.67467 196.108 1.248C195.105 0.800001 194.07 0.576 193.004 0.576C191.937 0.576 190.966 0.842667 190.092 1.376C189.238 1.888 188.502 2.63467 187.884 3.616C187.265 4.59733 186.785 5.78133 186.444 7.168C186.124 8.53333 185.964 10.08 185.964 11.808C185.964 15.648 186.582 18.464 187.82 20.256C189.057 22.0267 190.977 22.912 193.58 22.912C194.348 22.912 195.009 22.8053 195.564 22.592C196.14 22.3573 196.588 22.1333 196.908 21.92C197.313 21.6427 197.569 21.3867 197.676 21.152C197.782 20.896 197.836 20.5653 197.836 20.16V17.088C197.836 16.2133 197.75 15.5627 197.58 15.136C197.409 14.7093 197.089 14.4213 196.62 14.272C196.172 14.1227 195.5 14.0373 194.604 14.016V13.376C194.988 13.3973 195.436 13.4187 195.948 13.44C196.46 13.44 196.993 13.4507 197.548 13.472C198.124 13.472 198.646 13.472 199.116 13.472C199.82 13.472 200.449 13.4613 201.004 13.44C201.58 13.4187 202.06 13.3973 202.444 13.376V14.016C201.974 14.0373 201.622 14.112 201.388 14.24C201.153 14.368 200.993 14.624 200.908 15.008C200.844 15.392 200.812 15.9787 200.812 16.768V23.104H200.172C200.15 22.7413 200.065 22.3467 199.916 21.92C199.788 21.4933 199.585 21.28 199.308 21.28C199.18 21.28 199.052 21.312 198.924 21.376C198.796 21.44 198.572 21.5893 198.252 21.824C197.548 22.3573 196.801 22.784 196.012 23.104C195.222 23.4027 194.305 23.552 193.26 23.552C191.062 23.552 189.174 23.104 187.596 22.208C186.038 21.2907 184.844 19.9787 184.012 18.272C183.18 16.5653 182.764 14.528 182.764 12.16C182.764 9.664 183.212 7.50933 184.108 5.696C185.004 3.88267 186.22 2.48534 187.756 1.504C189.313 0.501334 191.084 0 193.068 0ZM220.848 0.448002C220.762 1.19467 220.698 1.92 220.656 2.624C220.634 3.328 220.624 3.86133 220.624 4.224C220.624 4.608 220.634 4.98133 220.656 5.344C220.677 5.68533 220.698 5.97333 220.72 6.208H219.984C219.856 4.94934 219.674 3.95733 219.44 3.232C219.205 2.48533 218.8 1.96267 218.224 1.664C217.669 1.344 216.826 1.184 215.696 1.184H213.04C212.314 1.184 211.76 1.248 211.376 1.376C211.013 1.48267 210.768 1.728 210.64 2.112C210.512 2.47467 210.448 3.05067 210.448 3.84V19.712C210.448 20.48 210.512 21.056 210.64 21.44C210.768 21.824 211.013 22.08 211.376 22.208C211.76 22.3147 212.314 22.368 213.04 22.368H215.376C216.72 22.368 217.733 22.1867 218.416 21.824C219.12 21.4613 219.621 20.8747 219.92 20.064C220.24 19.232 220.474 18.112 220.624 16.704H221.36C221.296 17.28 221.264 18.048 221.264 19.008C221.264 19.4133 221.274 20 221.296 20.768C221.338 21.5147 221.402 22.2933 221.488 23.104C220.4 23.0613 219.173 23.04 217.808 23.04C216.442 23.0187 215.226 23.008 214.16 23.008C213.69 23.008 213.082 23.008 212.336 23.008C211.61 23.008 210.821 23.0187 209.968 23.04C209.114 23.04 208.25 23.0507 207.376 23.072C206.501 23.072 205.669 23.0827 204.88 23.104V22.464C205.605 22.4213 206.149 22.336 206.512 22.208C206.896 22.08 207.152 21.824 207.28 21.44C207.408 21.056 207.472 20.48 207.472 19.712V3.84C207.472 3.05067 207.408 2.47467 207.28 2.112C207.152 1.728 206.896 1.472 206.512 1.344C206.149 1.19467 205.605 1.10933 204.88 1.088V0.448002C205.669 0.469335 206.501 0.490668 207.376 0.512001C208.25 0.512001 209.114 0.522668 209.968 0.544001C210.821 0.544001 211.61 0.544001 212.336 0.544001C213.082 0.544001 213.69 0.544001 214.16 0.544001C215.141 0.544001 216.25 0.544001 217.488 0.544001C218.746 0.522668 219.866 0.490668 220.848 0.448002ZM215.344 11.392C215.344 11.392 215.344 11.4987 215.344 11.712C215.344 11.9253 215.344 12.032 215.344 12.032H209.488C209.488 12.032 209.488 11.9253 209.488 11.712C209.488 11.4987 209.488 11.392 209.488 11.392H215.344ZM216.272 7.168C216.186 8.384 216.144 9.312 216.144 9.952C216.165 10.592 216.176 11.1787 216.176 11.712C216.176 12.2453 216.186 12.832 216.208 13.472C216.229 14.112 216.282 15.04 216.368 16.256H215.632C215.546 15.5733 215.44 14.912 215.312 14.272C215.205 13.6107 214.949 13.0773 214.544 12.672C214.16 12.2453 213.498 12.032 212.56 12.032V11.392C213.264 11.392 213.797 11.2533 214.16 10.976C214.544 10.6773 214.821 10.304 214.992 9.856C215.162 9.408 215.28 8.94933 215.344 8.48C215.408 7.98933 215.472 7.552 215.536 7.168H216.272Z" fill="#242038"/>
<path d="M31.689 0C33.7157 0 35.4864 0.458667 37.001 1.376C38.537 2.29333 39.721 3.616 40.553 5.344C41.4064 7.05067 41.833 9.13067 41.833 11.584C41.833 13.9733 41.3957 16.064 40.521 17.856C39.6677 19.648 38.473 21.0453 36.937 22.048C35.401 23.0507 33.641 23.552 31.657 23.552C29.6304 23.552 27.849 23.0933 26.313 22.176C24.7984 21.2587 23.6144 19.936 22.761 18.208C21.929 16.48 21.513 14.4 21.513 11.968C21.513 9.57867 21.9504 7.488 22.825 5.696C23.6997 3.904 24.8944 2.50667 26.409 1.504C27.945 0.501334 29.705 0 31.689 0ZM31.561 0.576C30.1744 0.576 28.969 1.056 27.945 2.016C26.921 2.976 26.121 4.29867 25.545 5.984C24.9904 7.66933 24.713 9.62133 24.713 11.84C24.713 14.1013 25.0224 16.0747 25.641 17.76C26.281 19.424 27.1344 20.7147 28.201 21.632C29.289 22.528 30.4837 22.976 31.785 22.976C33.1717 22.976 34.377 22.496 35.401 21.536C36.425 20.576 37.2144 19.2533 37.769 17.568C38.345 15.8613 38.633 13.9093 38.633 11.712C38.633 9.42933 38.313 7.456 37.673 5.792C37.0544 4.128 36.2117 2.848 35.145 1.952C34.0784 1.03467 32.8837 0.576 31.561 0.576Z" fill="#007EA7"/>
</svg>
