<svg width="26" height="26" viewBox="0 0 26 26" fill="none" xmlns="http://www.w3.org/2000/svg">
<path d="M12.9996 8.41058C10.4691 8.41058 8.4104 10.4693 8.4104 12.9998C8.4104 15.5303 10.4692 17.589 12.9996 17.589C15.5301 17.589 17.5889 15.5303 17.5889 12.9998C17.5889 10.4693 15.5301 8.41058 12.9996 8.41058ZM12.9996 17.0883C10.7451 17.0883 8.91101 15.2542 8.91101 12.9998C8.91101 10.7454 10.7451 8.91119 12.9996 8.91119C15.2541 8.91119 17.0881 10.7453 17.0881 12.9998C17.0881 15.2543 15.2541 17.0883 12.9996 17.0883Z" fill="#007EA7"/>
<path d="M25.7737 12.7507C20.644 12.2495 18.6968 11.112 18.3768 10.903C18.3465 10.8256 18.3149 10.7491 18.2814 10.6735C18.3305 10.2969 18.6593 8.15826 19.9841 6.36538C19.9856 6.36346 19.9865 6.3612 19.9878 6.35928C19.9918 6.35351 19.9951 6.34752 19.9986 6.34165C20.0031 6.33385 20.0074 6.32605 20.011 6.31802C20.0138 6.31169 20.0161 6.30536 20.0184 6.29892C20.0213 6.29056 20.0238 6.28219 20.0258 6.27372C20.0273 6.26716 20.0285 6.26072 20.0295 6.25416C20.0309 6.24546 20.0317 6.23675 20.032 6.22794C20.0324 6.22138 20.0325 6.21483 20.0323 6.20827C20.0319 6.19945 20.031 6.19064 20.0298 6.18193C20.0289 6.17549 20.0281 6.16894 20.0266 6.16261C20.0247 6.15379 20.0219 6.1452 20.0189 6.1365C20.0169 6.13051 20.0152 6.1244 20.0126 6.11853C20.0086 6.10914 20.0034 6.10033 19.9983 6.0914C19.9956 6.08665 19.9935 6.08179 19.9903 6.07727C19.9815 6.06404 19.9714 6.05139 19.9598 6.03986C19.9482 6.02821 19.9355 6.01815 19.9223 6.00922C19.918 6.00629 19.9133 6.00425 19.9089 6.00165C19.8998 5.99623 19.8905 5.99103 19.8809 5.98685C19.8754 5.98447 19.8697 5.98289 19.8641 5.98097C19.855 5.9778 19.8459 5.97486 19.8366 5.97283C19.8307 5.97159 19.8248 5.9708 19.8189 5.96989C19.8095 5.96853 19.8 5.96752 19.7905 5.96718C19.7846 5.96695 19.7787 5.96718 19.7729 5.9674C19.7632 5.96774 19.7538 5.96865 19.7443 5.97012C19.7384 5.97102 19.7326 5.97204 19.7269 5.9734C19.7176 5.97554 19.7085 5.97825 19.6995 5.98153C19.6936 5.98357 19.6879 5.98572 19.6821 5.9882C19.6736 5.99193 19.6655 5.99645 19.6573 6.0012C19.6516 6.00459 19.6457 6.00776 19.6402 6.0116C19.6381 6.01307 19.636 6.01397 19.6339 6.01544C17.849 7.33484 15.7038 7.66805 15.3257 7.71801C15.2502 7.68467 15.1737 7.65302 15.0966 7.62284C14.8858 7.30002 13.7495 5.35196 13.2488 0.225946C13.2362 0.0977708 13.1284 0 12.9997 0C12.8709 0 12.7631 0.0977708 12.7505 0.225946C12.2493 5.35637 11.1115 7.3033 10.9027 7.62284C10.8255 7.65302 10.749 7.68466 10.6734 7.71812C10.2968 7.66907 8.15815 7.34015 6.36527 6.01544C6.36335 6.01397 6.3612 6.01318 6.35928 6.01183C6.3534 6.00776 6.34718 6.00436 6.34108 6.00075C6.33351 5.99634 6.32593 5.99204 6.31791 5.98854C6.31147 5.98571 6.30491 5.98334 6.29836 5.98108C6.29022 5.97826 6.28197 5.97566 6.2736 5.97373C6.26705 5.97215 6.26038 5.97091 6.25371 5.97C6.24512 5.96876 6.23653 5.96786 6.22782 5.96752C6.22116 5.96718 6.2146 5.96707 6.20793 5.96729C6.19912 5.96763 6.19052 5.96853 6.18182 5.96978C6.17527 5.97068 6.16871 5.97147 6.16227 5.97294C6.15356 5.97486 6.14509 5.97769 6.1365 5.98052C6.13039 5.98255 6.12418 5.98436 6.11819 5.98696C6.10903 5.99091 6.10044 5.99589 6.09174 6.00086C6.08688 6.00369 6.08179 6.00595 6.07704 6.00922C6.06382 6.01815 6.05127 6.0281 6.03974 6.03974C6.0281 6.05127 6.01816 6.06393 6.00923 6.07704C6.00595 6.0819 6.00369 6.08699 6.00075 6.09196C5.99577 6.10055 5.9908 6.10914 5.98696 6.1183C5.98436 6.12429 5.98255 6.13051 5.98052 6.13672C5.97769 6.1452 5.97486 6.15368 5.97294 6.16238C5.97147 6.16882 5.97068 6.17538 5.96978 6.18193C5.96853 6.19064 5.96752 6.19934 5.96729 6.20816C5.96707 6.21471 5.96729 6.22127 5.96752 6.22782C5.96786 6.23664 5.96865 6.24546 5.97 6.25416C5.97102 6.26072 5.97215 6.26716 5.97373 6.2736C5.97577 6.28219 5.97837 6.29056 5.98131 6.29903C5.98357 6.30548 5.98583 6.31169 5.98854 6.31802C5.99216 6.32616 5.99645 6.33396 6.00109 6.34176C6.00448 6.34775 6.00776 6.35363 6.01171 6.35939C6.01307 6.36143 6.01397 6.36357 6.01544 6.3655C7.33484 8.15057 7.66805 10.2958 7.71801 10.6737C7.68444 10.7496 7.65279 10.8262 7.6225 10.9038C7.30308 11.1151 5.38123 12.2471 0.225947 12.7508C0.0977716 12.7633 0 12.871 0 12.9999C0 13.1287 0.0977716 13.2365 0.225947 13.249C5.3558 13.7502 7.30296 14.8877 7.62284 15.0967C7.65313 15.174 7.68466 15.2505 7.71812 15.3262C7.66907 15.7028 7.34026 17.8414 6.01556 19.6343C6.01409 19.6362 6.01329 19.6384 6.01194 19.6403C6.00787 19.6462 6.00448 19.6521 6.00097 19.6582C5.99657 19.6659 5.99216 19.6736 5.98865 19.6816C5.98583 19.688 5.98357 19.6943 5.98131 19.7009C5.97837 19.7092 5.97588 19.7175 5.97385 19.7261C5.97238 19.7325 5.97113 19.7391 5.97012 19.7456C5.96876 19.7543 5.96797 19.7631 5.96763 19.7719C5.96729 19.7785 5.96718 19.7851 5.9674 19.7916C5.96774 19.8004 5.96865 19.8091 5.96989 19.818C5.9708 19.8245 5.97159 19.831 5.97306 19.8374C5.97498 19.8462 5.9778 19.8547 5.98074 19.8633C5.98278 19.8694 5.98458 19.8755 5.98707 19.8815C5.99103 19.8906 5.996 19.8993 6.00109 19.908C6.00391 19.9129 6.00617 19.918 6.00934 19.9227C6.01827 19.9358 6.02821 19.9485 6.03986 19.96C6.05195 19.9721 6.06506 19.9829 6.07896 19.992C6.09253 20.0009 6.10666 20.0083 6.12135 20.0144C6.12169 20.0145 6.12203 20.0149 6.12237 20.015C6.15255 20.0273 6.18465 20.0334 6.21686 20.0334C6.23155 20.0334 6.24614 20.0318 6.26072 20.0292C6.26524 20.0284 6.26976 20.0271 6.27428 20.0259C6.28423 20.0236 6.29395 20.0208 6.30367 20.0172C6.30875 20.0153 6.31373 20.0132 6.31881 20.011C6.32797 20.0069 6.33678 20.0022 6.34549 19.997C6.35001 19.9943 6.35453 19.9917 6.35894 19.9886C6.36109 19.987 6.36357 19.986 6.36572 19.9844C8.15069 18.6652 10.2959 18.3318 10.674 18.2819C10.7495 18.3152 10.8259 18.3469 10.9031 18.3771C11.1138 18.6998 12.2502 20.6478 12.751 25.7739C12.7635 25.9021 12.8714 25.9999 13.0001 25.9999C13.1289 25.9999 13.2368 25.9021 13.2492 25.7739C13.7503 20.6442 14.8878 18.697 15.0969 18.3771C15.1742 18.3468 15.2508 18.3151 15.3264 18.2818C15.7031 18.3308 17.8416 18.6597 19.6345 19.9843C19.6365 19.9858 19.6388 19.9868 19.6409 19.9883C19.6456 19.9916 19.6504 19.9943 19.6552 19.9972C19.6637 20.0023 19.6721 20.0068 19.681 20.0108C19.6862 20.0132 19.6912 20.0153 19.6966 20.0172C19.7062 20.0207 19.7158 20.0236 19.7256 20.0258C19.7302 20.0269 19.7347 20.0283 19.7393 20.0291C19.7539 20.0317 19.7684 20.0333 19.783 20.0333C19.8151 20.0333 19.8472 20.0271 19.8775 20.0149C19.8779 20.0147 19.8783 20.0144 19.8786 20.0143C19.8932 20.0083 19.9075 20.0009 19.9209 19.9919C19.9348 19.9828 19.9479 19.9721 19.96 19.9599C19.9716 19.9483 19.9816 19.9357 19.9905 19.9226C19.9938 19.9179 19.9961 19.9128 19.9989 19.9078C20.0039 19.8991 20.009 19.8905 20.0128 19.8814C20.0154 19.8754 20.0172 19.8692 20.0193 19.8631C20.0221 19.8546 20.0249 19.8461 20.0268 19.8373C20.0283 19.8308 20.0291 19.8243 20.03 19.8177C20.0312 19.809 20.0323 19.8003 20.0325 19.7915C20.0327 19.7849 20.0325 19.7784 20.0323 19.7718C20.0319 19.763 20.031 19.7542 20.0298 19.7454C20.0288 19.7389 20.0276 19.7325 20.0262 19.7262C20.0241 19.7175 20.0215 19.709 20.0186 19.7004C20.0164 19.6942 20.0142 19.688 20.0115 19.6819C20.0077 19.6735 20.0033 19.6655 19.9986 19.6574C19.9952 19.6517 19.9921 19.6459 19.9883 19.6405C19.9869 19.6385 19.9859 19.6362 19.9844 19.6341C18.6653 17.8492 18.3318 15.704 18.2819 15.3259C18.3153 15.2504 18.3469 15.1739 18.3772 15.0967C18.7 14.8859 20.6482 13.7496 25.7741 13.2489C25.9022 13.2363 26 13.1286 26 12.9998C26 12.8709 25.9019 12.7632 25.7737 12.7507ZM12.9997 18.2723C10.0924 18.2723 7.72716 15.9071 7.72716 12.9999C7.72716 10.0927 10.0924 7.7275 12.9997 7.7275C15.9069 7.7275 18.272 10.0927 18.272 12.9999C18.272 15.9071 15.9069 18.2723 12.9997 18.2723ZM17.2527 9.1007L18.6138 7.7396C18.2277 8.60054 18.0132 9.40125 17.8983 9.94989C17.7089 9.64709 17.493 9.36259 17.2527 9.1007ZM18.2604 7.38502L16.8987 8.74669C16.6366 8.50628 16.352 8.29028 16.0491 8.10095C16.5981 7.98578 17.3996 7.77091 18.2604 7.38502ZM12.9997 2.29247C13.4244 5.09154 14.0251 6.6475 14.397 7.39859C14.0273 7.30635 13.6438 7.24984 13.25 7.233V4.95601C13.25 4.81778 13.138 4.70565 12.9997 4.70565C12.8614 4.70565 12.7493 4.81767 12.7493 4.95601V7.233C12.3555 7.24984 11.9719 7.30635 11.6022 7.39859C11.9743 6.6475 12.5749 5.09154 12.9997 2.29247ZM9.10059 8.7468L7.73948 7.3857C8.60032 7.77181 9.40113 7.98634 9.94978 8.10129C9.64697 8.2905 9.36248 8.50639 9.10059 8.7468ZM7.38491 7.73903L8.74658 9.1007C8.50616 9.36271 8.29016 9.64731 8.10084 9.95035C7.98566 9.40136 7.77079 8.59998 7.38491 7.73903ZM2.29236 12.9998C5.09142 12.5749 6.64739 11.9743 7.39859 11.6024C7.30635 11.9721 7.24984 12.3557 7.233 12.7494H4.95601C4.81778 12.7494 4.70565 12.8614 4.70565 12.9998C4.70565 13.138 4.81767 13.2501 4.95601 13.2501H7.233C7.24984 13.6439 7.30635 14.0276 7.39859 14.3972C6.64739 14.0253 5.09142 13.4247 2.29236 12.9998ZM8.74658 16.8988L7.38548 18.26C7.77147 17.399 7.98611 16.5983 8.10107 16.0497C8.29039 16.3525 8.50628 16.637 8.74658 16.8988ZM7.73892 18.6145L9.10059 17.2529C9.36259 17.4933 9.6472 17.7094 9.95023 17.8986C9.40125 18.0138 8.59975 18.2286 7.73892 18.6145ZM12.9997 23.7072C12.5748 20.9081 11.9741 19.352 11.6023 18.601C11.972 18.6932 12.3556 18.7497 12.7494 18.7666V21.0435C12.7494 21.1818 12.8614 21.2939 12.9998 21.2939C13.138 21.2939 13.2501 21.1819 13.2501 21.0435V18.7666C13.6439 18.7496 14.0274 18.6932 14.3972 18.601C14.0251 19.352 13.4245 20.9081 12.9997 23.7072ZM16.8987 17.2529L18.2597 18.6138C17.3989 18.2277 16.5982 18.0132 16.0495 17.8983C16.3523 17.709 16.6368 17.4932 16.8987 17.2529ZM18.6144 18.2606L17.2527 16.899C17.4932 16.6368 17.7092 16.3522 17.8985 16.0493C18.0137 16.5982 18.2285 17.3997 18.6144 18.2606ZM18.6007 14.3972C18.693 14.0274 18.7495 13.6439 18.7663 13.2501H21.0433C21.1815 13.2501 21.2937 13.1381 21.2937 12.9998C21.2937 12.8615 21.1817 12.7494 21.0433 12.7494H18.7663C18.7495 12.3556 18.693 11.972 18.6007 11.6024C19.3519 11.9743 20.9079 12.5749 23.707 12.9998C20.908 13.4247 19.3519 14.0253 18.6007 14.3972Z" fill="#007EA7"/>
<path d="M8.14552 2.63739C8.18621 2.73234 8.27855 2.78908 8.37564 2.78908C8.40854 2.78908 8.44199 2.78264 8.47421 2.76873C8.60125 2.71425 8.66014 2.56709 8.60566 2.44004L8.21978 1.54044C8.1653 1.41339 8.0179 1.35439 7.89108 1.4091C7.76404 1.46358 7.70515 1.61074 7.75963 1.73779L8.14552 2.63739Z" fill="#007EA7"/>
<path d="M8.64576 3.80397L9.72293 6.31526C9.76373 6.41021 9.85597 6.46695 9.95306 6.46695C9.98606 6.46695 10.0194 6.46051 10.0516 6.4466C10.1788 6.39212 10.2376 6.24496 10.1831 6.11791L9.1059 3.60662C9.05119 3.47946 8.90414 3.42057 8.77721 3.47528C8.65005 3.52964 8.59128 3.67692 8.64576 3.80397Z" fill="#007EA7"/>
<path d="M1.33089 8.74171L2.23998 9.10499C2.2705 9.11719 2.30193 9.12296 2.33278 9.12296C2.43214 9.12296 2.52618 9.06339 2.56528 8.96551C2.6166 8.83711 2.55409 8.69153 2.42581 8.64021L1.51671 8.27693C1.38831 8.22573 1.24272 8.28812 1.19141 8.41641C1.13998 8.54481 1.20249 8.69039 1.33089 8.74171Z" fill="#007EA7"/>
<path d="M3.41865 9.57595L5.95594 10.5899C5.98646 10.6022 6.01788 10.6079 6.04874 10.6079C6.1481 10.6079 6.24214 10.5483 6.28124 10.4505C6.33256 10.3221 6.27005 10.1765 6.14177 10.1252L3.60447 9.11117C3.47596 9.06008 3.33038 9.12237 3.27918 9.25065C3.22775 9.37906 3.29025 9.52475 3.41865 9.57595Z" fill="#007EA7"/>
<path d="M2.44003 17.3938L1.54032 17.7797C1.41327 17.8343 1.35438 17.9814 1.40886 18.1084C1.44955 18.2032 1.5419 18.2602 1.63899 18.2602C1.67188 18.2602 1.70534 18.2536 1.73755 18.2398L2.63727 17.8539C2.76432 17.7994 2.8232 17.6523 2.76872 17.5253C2.71424 17.3982 2.56685 17.3394 2.44003 17.3938Z" fill="#007EA7"/>
<path d="M6.44654 15.9479C6.39183 15.8208 6.2449 15.7619 6.11774 15.8165L3.60656 16.8937C3.4794 16.9482 3.42062 17.0953 3.4751 17.2224C3.51591 17.3173 3.60814 17.3741 3.70523 17.3741C3.73824 17.3741 3.77158 17.3676 3.80379 17.3537L6.31497 16.2766C6.44225 16.2221 6.50102 16.0748 6.44654 15.9479Z" fill="#007EA7"/>
<path d="M8.96525 23.4341C8.83696 23.3827 8.69127 23.4453 8.63995 23.5736L8.27667 24.4827C8.22536 24.6111 8.28786 24.7568 8.41626 24.808C8.44678 24.8202 8.4782 24.826 8.50906 24.826C8.60841 24.826 8.70246 24.7663 8.74156 24.6684L9.10484 23.7593C9.15616 23.631 9.09365 23.4853 8.96525 23.4341Z" fill="#007EA7"/>
<path d="M10.4504 19.7182C10.322 19.6669 10.1764 19.7295 10.1251 19.8577L9.11096 22.395C9.05965 22.5234 9.12215 22.6689 9.25044 22.7203C9.28096 22.7325 9.31238 22.7382 9.34324 22.7382C9.44259 22.7382 9.53663 22.6785 9.57574 22.5807L10.5898 20.0434C10.6413 19.9151 10.5788 19.7695 10.4504 19.7182Z" fill="#007EA7"/>
<path d="M17.8538 23.362C17.7992 23.2348 17.6518 23.1761 17.5251 23.2305C17.3979 23.2851 17.3391 23.4323 17.3936 23.5592L17.7796 24.4589C17.8204 24.5539 17.9127 24.6107 18.0097 24.6107C18.0427 24.6107 18.0761 24.6042 18.1083 24.5904C18.2355 24.5358 18.2942 24.3886 18.2398 24.2617L17.8538 23.362Z" fill="#007EA7"/>
<path d="M17.3535 22.1956L16.2764 19.6844C16.2217 19.5571 16.0747 19.4986 15.9477 19.553C15.8205 19.6075 15.7617 19.7547 15.8162 19.8816L16.8934 22.3928C16.9342 22.4878 17.0264 22.5446 17.1235 22.5446C17.1565 22.5446 17.1899 22.5381 17.2221 22.5243C17.3492 22.4698 17.408 22.3226 17.3535 22.1956Z" fill="#007EA7"/>
<path d="M24.6684 17.258L23.7594 16.8947C23.6309 16.8436 23.4855 16.9059 23.4341 17.0342C23.3828 17.1625 23.4453 17.3081 23.5736 17.3595L24.4826 17.7227C24.5131 17.7349 24.5445 17.7407 24.5754 17.7407C24.6748 17.7407 24.7688 17.6811 24.8079 17.5833C24.8593 17.4549 24.7968 17.3092 24.6684 17.258Z" fill="#007EA7"/>
<path d="M22.5807 16.4235L20.0433 15.4094C19.9148 15.3581 19.7693 15.4206 19.718 15.5489C19.6667 15.6773 19.7292 15.8229 19.8576 15.8742L22.395 16.8883C22.4255 16.9005 22.457 16.9063 22.4878 16.9063C22.5872 16.9063 22.6812 16.8467 22.7203 16.7488C22.7716 16.6204 22.7091 16.4748 22.5807 16.4235Z" fill="#007EA7"/>
<path d="M23.4608 8.62597C23.4937 8.62597 23.5271 8.61942 23.5593 8.60563L24.4589 8.21974C24.5861 8.16526 24.6449 8.0181 24.5904 7.89105C24.5357 7.76389 24.3886 7.70512 24.2616 7.75971L23.362 8.1456C23.2348 8.20008 23.1761 8.34724 23.2305 8.47429C23.2713 8.56912 23.3637 8.62597 23.4608 8.62597Z" fill="#007EA7"/>
<path d="M19.5527 10.0517C19.5935 10.1467 19.6858 10.2034 19.7829 10.2034C19.8159 10.2034 19.8492 10.197 19.8814 10.1831L22.3927 9.10591C22.5198 9.05143 22.5786 8.90427 22.5242 8.77722C22.4695 8.65007 22.3224 8.59129 22.1954 8.64588L19.6841 9.72306C19.5571 9.77754 19.4982 9.92482 19.5527 10.0517Z" fill="#007EA7"/>
<path d="M17.0339 2.56541C17.0644 2.57762 17.0959 2.58339 17.1267 2.58339C17.2261 2.58339 17.3201 2.52382 17.3592 2.42594L17.7226 1.51695C17.774 1.38866 17.7114 1.24297 17.5832 1.19165C17.4551 1.14034 17.3092 1.20284 17.2579 1.33113L16.8945 2.24011C16.843 2.3684 16.9055 2.5141 17.0339 2.56541Z" fill="#007EA7"/>
<path d="M15.5488 6.28151C15.5794 6.29372 15.6108 6.29948 15.6416 6.29948C15.741 6.29948 15.835 6.23991 15.8741 6.14203L16.8882 3.60463C16.9396 3.47622 16.8771 3.33064 16.7488 3.27933C16.6204 3.22824 16.4748 3.29052 16.4235 3.4188L15.4094 5.95621C15.358 6.0845 15.4206 6.23019 15.5488 6.28151Z" fill="#007EA7"/>
<path d="M14.7161 12.8305H13.3623L13.9733 12.2196C14.0319 12.1609 14.0319 12.0658 13.9733 12.0072C13.9146 11.9485 13.8195 11.9485 13.7609 12.0072L13.15 12.6181V11.2642C13.15 11.1813 13.0827 11.114 12.9997 11.114C12.9168 11.114 12.8495 11.1813 12.8495 11.2642V12.6181L12.2386 12.0072C12.1799 11.9485 12.0849 11.9485 12.0262 12.0072C11.9676 12.0658 11.9676 12.1609 12.0262 12.2196L12.6371 12.8305H11.2833C11.2003 12.8305 11.1331 12.8977 11.1331 12.9807C11.1331 13.0637 11.2003 13.1309 11.2833 13.1309H12.6371L12.0262 13.7418C11.9676 13.8005 11.9676 13.8956 12.0262 13.9542C12.0556 13.9836 12.094 13.9982 12.1325 13.9982C12.1709 13.9982 12.2093 13.9835 12.2386 13.9542L12.8495 13.3433V14.6972C12.8495 14.7801 12.9168 14.8474 12.9997 14.8474C13.0827 14.8474 13.15 14.7801 13.15 14.6972V13.3433L13.7609 13.9542C13.7903 13.9836 13.8287 13.9982 13.8671 13.9982C13.9056 13.9982 13.944 13.9835 13.9733 13.9542C14.0319 13.8956 14.0319 13.8005 13.9733 13.7418L13.3623 13.1309H14.7161C14.7991 13.1309 14.8663 13.0637 14.8663 12.9807C14.8663 12.8977 14.7991 12.8305 14.7161 12.8305Z" fill="#007EA7"/>
</svg>
